<svg xmlns="http://www.w3.org/2000/svg" style="display:none">
  <defs>
    <linearGradient id="ay-grad" x1="0" y1="0" x2="1" y2="1">
      <stop offset="0%" stop-color="#491cff"></stop>
      <stop offset="100%" stop-color="#ff99d4"></stop>
    </linearGradient>
  </defs>

  
  <symbol id="i-arrow-right" viewBox="0 0 24 24" fill="none" stroke="currentColor" stroke-width="2.5" stroke-linecap="round" stroke-linejoin="round">
    <path d="M5 12h14M12 5l7 7-7 7"></path>
  </symbol>

  
  <symbol id="i-download" viewBox="0 0 24 24" fill="none" stroke="currentColor" stroke-width="2" stroke-linecap="round" stroke-linejoin="round">
    <path d="M21 15v4a2 2 0 01-2 2H5a2 2 0 01-2-2v-4M7 10l5 5 5-5M12 15V3"></path>
  </symbol>

  
  <symbol id="i-external" viewBox="0 0 24 24" fill="none" stroke="currentColor" stroke-width="2.5" stroke-linecap="round" stroke-linejoin="round">
    <path d="M18 13v6a2 2 0 01-2 2H5a2 2 0 01-2-2V8a2 2 0 012-2h6M15 3h6v6M10 14L21 3"></path>
  </symbol>

  
  <symbol id="i-check" viewBox="0 0 12 12" fill="none" stroke="currentColor" stroke-width="2" stroke-linecap="round" stroke-linejoin="round">
    <path d="M2 6l3 3 5-5"></path>
  </symbol>
</svg>